<?xml version="1.0" encoding="UTF-8"?>
<svg width="18px" height="18px" viewBox="0 0 18 18" version="1.1" xmlns="http://www.w3.org/2000/svg" xmlns:xlink="http://www.w3.org/1999/xlink">
    <title>3F7CE7DC-AA93-4C20-9F83-3A8AA5A0E446</title>
    <g id="Dizains" stroke="none" stroke-width="1" fill="none" fill-rule="evenodd" opacity="0.600000024">
        <g id="First-log-in" transform="translate(-910.000000, -589.000000)">
            <g id="Intro" transform="translate(210.000000, 353.000000)">
                <g id="Content" transform="translate(40.000000, 40.000000)">
                    <g id="Left" transform="translate(660.000000, 34.000000)">
                        <g id="List" transform="translate(0.000000, 61.000000)">
                            <g id="Item-2" transform="translate(0.000000, 98.000000)">
                                <g id="Icon" transform="translate(0.000000, 3.000000)">
                                    <circle id="base" fill="#D1D5DB" cx="9" cy="9" r="9"></circle>
                                    <path d="M10.065685,4.934315 L13.5656854,8.43431458 C13.5964296,8.46505876 13.6241484,8.4976827 13.6488417,8.53181645 C13.7102488,8.61705184 13.7551281,8.71399605 13.7793997,8.81883409 L13.7927639,8.89199167 L13.8,9 L13.797124,9.06831602 L13.7794292,9.18072688 C13.7632285,9.25091159 13.7378819,9.31739281 13.7047133,9.37896796 L13.6410295,9.47878119 L13.6040877,9.52451197 L10.065685,13.065685 C9.75326557,13.3781044 9.24673443,13.3781044 8.934315,13.065685 C8.62189557,12.7532656 8.62189557,12.2467344 8.934315,11.934315 L11.069,9.8 L5,9.8 C4.5581722,9.8 4.2,9.4418278 4.2,9 C4.2,8.5581722 4.5581722,8.20000042 5,8.20000042 L11.069,8.20000042 L8.934315,6.065685 C8.65029733,5.78166733 8.62447691,5.33722659 8.856855,5.024041 L8.934315,4.934315 C9.24673443,4.62189557 9.75326557,4.62189557 10.065685,4.934315 Z" id="icon" fill="#454D54" fill-rule="nonzero"></path>
                                </g>
                            </g>
                        </g>
                    </g>
                </g>
            </g>
        </g>
    </g>
</svg>