<?xml version="1.0" encoding="UTF-8"?>
<svg width="24px" height="24px" viewBox="0 0 24 24" version="1.1" xmlns="http://www.w3.org/2000/svg" xmlns:xlink="http://www.w3.org/1999/xlink">
    <title>240DD804-20DF-44B6-ADA5-F75D168AB63A</title>
    <g id="Page-1" stroke="none" stroke-width="1" fill="none" fill-rule="evenodd" opacity="0.600000024">
        <g id="SÄkumlapa" transform="translate(-210.000000, -6709.000000)">
            <g id="CTA-+-Checklist" transform="translate(0.000000, 6151.000000)">
                <g id="Checklist" transform="translate(0.000000, 100.000000)">
                    <g id="Content" transform="translate(210.000000, 220.000000)">
                        <g id="List" transform="translate(0.000000, 128.000000)">
                            <g id="Item-2" transform="translate(0.000000, 108.000000)">
                                <g id="Icon" transform="translate(0.000000, 2.000000)">
                                    <circle id="base" fill="#D1D5DB" cx="12" cy="12" r="12"></circle>
                                    <path d="M13.5656854,7.43431458 L17.5656854,11.4343146 C17.5964296,11.4650588 17.6241484,11.4976827 17.6488417,11.5318164 C17.7102488,11.6170518 17.7551281,11.713996 17.7793997,11.8188341 L17.7927639,11.8919917 L17.8,12 L17.797124,12.068316 L17.7794292,12.1807269 C17.7632285,12.2509116 17.7378819,12.3173928 17.7047133,12.378968 L17.6410295,12.4787812 L17.6040877,12.524512 L13.5656854,16.5656854 C13.253266,16.8781049 12.746734,16.8781049 12.4343146,16.5656854 C12.1218951,16.253266 12.1218951,15.746734 12.4343146,15.4343146 L15.069,12.8 L7,12.8 C6.5581722,12.8 6.2,12.4418278 6.2,12 C6.2,11.5581722 6.5581722,11.2 7,11.2 L15.069,11.2 L12.4343146,8.56568542 C12.1502969,8.28166776 12.1244771,7.8372265 12.3568552,7.5240409 L12.4343146,7.43431458 C12.746734,7.12189514 13.253266,7.12189514 13.5656854,7.43431458 Z" id="icon" fill="#454D54" fill-rule="nonzero"></path>
                                </g>
                            </g>
                        </g>
                    </g>
                </g>
            </g>
        </g>
    </g>
</svg>