<?xml version="1.0" encoding="UTF-8"?>
<svg width="20px" height="20px" viewBox="0 0 20 20" version="1.1" xmlns="http://www.w3.org/2000/svg" xmlns:xlink="http://www.w3.org/1999/xlink">
    <title>DE1A61AC-AF78-42D5-B7D3-BFE404A2858C</title>
    <defs>
        <rect id="path-1" x="0" y="0" width="380" height="517" rx="8"></rect>
        <filter x="-1.1%" y="-0.4%" width="102.1%" height="101.5%" filterUnits="objectBoundingBox" id="filter-2">
            <feOffset dx="0" dy="2" in="SourceAlpha" result="shadowOffsetOuter1"></feOffset>
            <feGaussianBlur stdDeviation="1" in="shadowOffsetOuter1" result="shadowBlurOuter1"></feGaussianBlur>
            <feComposite in="shadowBlurOuter1" in2="SourceAlpha" operator="out" result="shadowBlurOuter1"></feComposite>
            <feColorMatrix values="0 0 0 0 0.819607843   0 0 0 0 0.835294118   0 0 0 0 0.858823529  0 0 0 0.2 0" type="matrix" in="shadowBlurOuter1"></feColorMatrix>
        </filter>
    </defs>
    <g id="Page-1" stroke="none" stroke-width="1" fill="none" fill-rule="evenodd">
        <g id="SÄkumlapa" transform="translate(-260.000000, -1643.000000)">
            <rect fill="#FFFFFF" x="0" y="0" width="1600" height="7935"></rect>
            <g id="Services" transform="translate(210.000000, 1156.000000)">
                <g id="Card" transform="translate(0.000000, 234.000000)">
                    <g id="Base">
                        <use fill="black" fill-opacity="1" filter="url(#filter-2)" xlink:href="#path-1"></use>
                        <rect stroke="#D1D5DB" stroke-width="1" stroke-linejoin="square" fill="#FFFFFF" fill-rule="evenodd" x="0.5" y="0.5" width="379" height="516" rx="8"></rect>
                    </g>
                    <g id="Content" transform="translate(50.000000, 94.000000)">
                        <g id="Checklist" transform="translate(0.000000, 157.000000)">
                            <g id="Icon-/-Check-Circle" transform="translate(0.000000, 2.000000)">
                                <circle id="Base" fill="#FFD000" cx="10" cy="10" r="10"></circle>
                                <path d="M14.2928932,6.29289322 C14.6834175,5.90236893 15.3165825,5.90236893 15.7071068,6.29289322 C16.0976311,6.68341751 16.0976311,7.31658249 15.7071068,7.70710678 L9.70710678,13.7071068 C9.31658249,14.0976311 8.68341751,14.0976311 8.29289322,13.7071068 L6.29289322,11.7071068 C5.90236893,11.3165825 5.90236893,10.6834175 6.29289322,10.2928932 C6.68341751,9.90236893 7.31658249,9.90236893 7.70710678,10.2928932 L9,11.585 L14.2928932,6.29289322 Z" id="Icon" fill="#10172A"></path>
                            </g>
                        </g>
                    </g>
                </g>
            </g>
        </g>
    </g>
</svg>